PathFileType	4	(X/Y/Z)	/Users/itak/Documents/Research/Walk-IL/dataset/trc/00552_00009.trc
DataRate	CameraRate	NumFrames	NumMarkers	Units	OrigDataRate	OrigDataStartFrame	OrigNumFrames
100.000000	100.000000	4	53	mm	100.000000	415	554
Frame#	Time	RPSI			LPSI			L3			STRN			T10			C7			CLAV			RBAK			LBAK			LSHO			LUPA			LAEL			LAOL			LWTS			LWPS			LFRA			LIFD			LHPS			LHTS			RSHO			RUPA			RAEL			RAOL			RWTS			RWPS			RFRA			RIFD			RHTS			RHPS			RBHD			LFHD			RFHD			LBHD			LHIP			RHIP			RASI			LASI			LKNE			LTHI			LANK			LTIP			LTOE			LMT1			LMT5			LHEE			RKNE			RTHI			RANK			RTIP			RTOE			RMT1			RMT5			RHEE			
		X1	Y1	Z1	X2	Y2	Z2	X3	Y3	Z3	X4	Y4	Z4	X5	Y5	Z5	X6	Y6	Z6	X7	Y7	Z7	X8	Y8	Z8	X9	Y9	Z9	X10	Y10	Z10	X11	Y11	Z11	X12	Y12	Z12	X13	Y13	Z13	X14	Y14	Z14	X15	Y15	Z15	X16	Y16	Z16	X17	Y17	Z17	X18	Y18	Z18	X19	Y19	Z19	X20	Y20	Z20	X21	Y21	Z21	X22	Y22	Z22	X23	Y23	Z23	X24	Y24	Z24	X25	Y25	Z25	X26	Y26	Z26	X27	Y27	Z27	X28	Y28	Z28	X29	Y29	Z29	X30	Y30	Z30	X31	Y31	Z31	X32	Y32	Z32	X33	Y33	Z33	X34	Y34	Z34	X35	Y35	Z35	X36	Y36	Z36	X37	Y37	Z37	X38	Y38	Z38	X39	Y39	Z39	X40	Y40	Z40	X41	Y41	Z41	X42	Y42	Z42	X43	Y43	Z43	X44	Y44	Z44	X45	Y45	Z45	X46	Y46	Z46	X47	Y47	Z47	X48	Y48	Z48	X49	Y49	Z49	X50	Y50	Z50	X51	Y51	Z51	X52	Y52	Z52	X53	Y53	Z53	

416	4.15	1104.871215820312	987.4491577148438	293.5690612792969	1119.586181640625	994.3392333984375	160.4297180175781	1116.17431640625	1088.55078125	229.3834838867188	1339.639404296875	1286.11181640625	246.5191802978516	1100.497924804688	1212.50048828125	233.5024261474609	1135.4091796875	1487.165649414062	257.9295349121094	1314.393432617188	1396.155517578125	248.0580902099609	1068.330688476562	1358.4794921875	339.1639709472656	1105.8486328125	1434.1513671875	164.5175476074219	1203.315795898438	1465.366455078125	85.74240112304688	1202.30419921875	1340.7294921875	2.35035228729248	1239.662109375	1121.981079101562	-26.85581207275391	1154.062133789062	1104.318603515625	24.94665908813477	1358.315307617188	888.9187622070312	10.59093475341797	1315.450805664062	864.1176147460938	-61.1136360168457	1271.118896484375	1038.768676757812	-37.28374862670898	1372.373046875	719.0955200195312	-0.8813613653182983	1330.004516601562	805.262451171875	-55.24581909179688	1381.540161132812	814.2522583007812	-11.46452331542969	1195.11572265625	1448.215576171875	413.17724609375	1177.763427734375	1380.721069335938	477.6957702636719	1183.372436523438	1091.265869140625	518.771240234375	1129.642578125	1073.535888671875	487.9498596191406	1318.982543945312	869.6887817382812	489.1042785644531	1271.404418945312	851.3193359375	553.8074951171875	1193.313232421875	1036.4345703125	526.9945068359375	1325.146240234375	694.4299926757812	496.5290832519531	1342.445190429688	776.5928955078125	503.8416442871094	1285.262329101562	775.7446899414062	551.2154541015625	1230.098876953125	1677.682373046875	326.1064758300781	1381.5537109375	1684.92333984375	183.1386413574219	1370.8310546875	1684.005493164062	328.1454467773438	1249.29833984375	1675.921752929688	162.1670379638672	1269.299438476562	930.2589721679688	48.65085220336914	1216.145629882812	919.5663452148438	427.2422485351562	1310.151611328125	956.4846801757812	381.4371643066406	1336.264892578125	958.9778442382812	108.4795761108398	1410.056640625	508.5545043945312	126.7572326660156	1364.7373046875	666.3745727539062	84.36064147949219	1381.581909179688	30.72072410583496	147.5253143310547	1384.78369140625	251.2421722412109	132.0442810058594	1589.229370117188	40.42404937744141	217.6464691162109	1516.219116210938	46.63884353637695	247.9301452636719	1503.391967773438	33.42130279541016	138.9233703613281	1312.738403320312	38.63182067871094	199.3022613525391	1282.728881835938	480.2003173828125	408.5114135742188	1272.62841796875	769.6264038085938	426.5587158203125	909.8009643554688	173.5364685058594	368.3713073730469	1201.400024414062	359.1851806640625	392.1529846191406	1082.687866210938	47.70599746704102	334.7227172851562	1037.298583984375	87.19427490234375	291.1135864257812	1005.189392089844	87.21472930908203	390.9577941894531	875.9874267578125	211.1860809326172	310.0445251464844	
417	4.16	1109.985473632812	989.0948486328125	292.8055725097656	1125.403198242188	995.965087890625	159.5389404296875	1121.743408203125	1090.102905273438	228.4414367675781	1345.443969726562	1287.425903320312	246.5281219482422	1106.46435546875	1214.036010742188	232.3131408691406	1141.412231445312	1488.632934570312	256.9650573730469	1320.325073242188	1397.472290039062	248.0460968017578	1073.79931640625	1359.970825195312	337.8256225585938	1112.294067382812	1435.67529296875	163.36328125	1210.184936523438	1466.93994140625	85.21276092529297	1209.87548828125	1342.608032226562	1.505398035049438	1248.531860351562	1124.07470703125	-27.83869743347168	1162.509155273438	1105.733154296875	23.24136543273926	1368.890014648438	892.1836547851562	10.25616359710693	1326.793579101562	866.941650390625	-61.71659469604492	1280.725219726562	1041.13623046875	-38.15278244018555	1385.4130859375	722.6505126953125	-1.411463975906372	1342.15234375	808.2880859375	-55.89634704589844	1393.286743164062	817.935546875	-11.76518058776855	1200.178833007812	1449.692016601562	412.5042114257812	1182.398559570312	1382.192993164062	476.8996276855469	1187.80029296875	1092.723754882812	517.818359375	1134.283569335938	1074.875	486.8768005371094	1324.601440429688	871.8486938476562	488.145751953125	1276.9267578125	853.11083984375	552.6885375976562	1197.952270507812	1037.8603515625	526.016357421875	1331.574829101562	696.5933227539062	495.1945495605469	1348.448974609375	778.8390502929688	502.7477111816406	1291.138916015625	777.6067504882812	549.9683837890625	1236.0849609375	1679.16015625	325.6446533203125	1387.90771484375	1686.146850585938	183.0760498046875	1376.8388671875	1685.368774414062	328.1044921875	1255.65869140625	1677.23876953125	161.8108062744141	1274.772338867188	931.3006591796875	48.36095428466797	1221.30224609375	921.274658203125	426.8489379882812	1315.146606445312	958.1072387695312	381.0325012207031	1341.8408203125	959.9734497070312	108.150260925293	1412.091064453125	508.4659729003906	127.0148544311523	1368.371948242188	666.7001953125	84.69843292236328	1381.597045898438	30.80803108215332	147.5193023681641	1385.587646484375	251.2653656005859	132.1042785644531	1589.225219726562	40.48877716064453	217.6782989501953	1516.201904296875	46.58533477783203	247.9618835449219	1503.39697265625	33.46733856201172	138.9494323730469	1312.722045898438	38.74296188354492	199.3368530273438	1293.98388671875	482.4412231445312	408.7568969726562	1279.500854492188	771.671630859375	426.3146362304688	922.8601684570312	174.4073333740234	368.8721618652344	1213.386596679688	361.1228942871094	392.5800476074219	1097.847045898438	50.04168701171875	339.6033325195312	1052.199829101562	88.13606262207031	294.7308654785156	1019.272644042969	90.15370941162109	394.3883666992188	888.7236328125	210.2702026367188	309.6131591796875	
418	4.17	1114.912109375	990.7310791015625	292.1923828125	1131.043334960938	997.5440063476562	158.8367919921875	1127.09619140625	1091.648193359375	227.6028137207031	1351.11572265625	1288.673461914062	246.5420074462891	1112.288818359375	1215.557495117188	231.1869201660156	1147.34423828125	1490.089477539062	255.9984130859375	1326.155029296875	1398.736450195312	248.0545806884766	1079.163330078125	1361.491821289062	336.5022583007812	1118.677612304688	1437.191162109375	162.2043914794922	1217.020629882812	1468.501831054688	84.70518493652344	1217.435791015625	1344.498657226562	0.672624409198761	1257.354736328125	1126.1689453125	-28.81833839416504	1170.917846679688	1107.16796875	21.5177059173584	1379.361694335938	895.4337158203125	9.994019508361816	1338.038208007812	869.7715454101562	-62.25810623168945	1290.272338867188	1043.511474609375	-38.99101257324219	1398.256958007812	726.2130126953125	-1.813569068908691	1354.158081054688	811.320556640625	-56.45565032958984	1404.884033203125	821.6017456054688	-11.97347164154053	1205.14794921875	1451.150634765625	411.8314819335938	1186.9150390625	1383.660400390625	476.1078796386719	1191.975952148438	1094.176879882812	516.8909301757812	1138.723999023438	1076.18994140625	485.7833862304688	1330.218872070312	874.19970703125	487.4085693359375	1282.3134765625	854.9700317382812	551.6439819335938	1202.36865234375	1039.302368164062	525.1011962890625	1338.413330078125	699.001953125	494.1004333496094	1354.6376953125	781.3582153320312	501.9501342773438	1297.063354492188	779.5902099609375	548.8401489257812	1241.941528320312	1680.577270507812	325.2253112792969	1394.140502929688	1687.3603515625	183.0947113037109	1382.722534179688	1686.708251953125	328.1463928222656	1261.92236328125	1678.519409179688	161.5005340576172	1279.990234375	932.2705688476562	48.04616928100586	1226.41552734375	923.03515625	426.5242309570312	1319.977905273438	959.7027587890625	380.6225891113281	1347.157958984375	960.8976440429688	107.796989440918	1413.91162109375	508.3605346679688	127.2323684692383	1371.736206054688	666.96240234375	85.01584625244141	1381.602172851562	30.86839294433594	147.5429992675781	1386.257568359375	251.2603607177734	132.1915435791016	1589.238403320312	40.47976303100586	217.7130584716797	1516.184692382812	46.53765106201172	247.9956512451172	1503.406372070312	33.52556610107422	138.9756011962891	1312.710205078125	38.85165405273438	199.3778991699219	1304.885498046875	484.7615051269531	408.9795837402344	1286.293579101562	773.7343139648438	426.1044921875	936.5674438476562	174.0684356689453	369.5471496582031	1225.328735351562	362.9211730957031	393.0549621582031	1113.955322265625	52.25127029418945	343.9454040527344	1067.822265625	88.57773590087891	298.0516052246094	1034.316284179688	92.2244873046875	397.5461120605469	901.91845703125	208.1353607177734	309.5115661621094	
419	4.18	1119.662841796875	992.3303833007812	291.7171325683594	1136.416259765625	999.0794677734375	158.3477935791016	1132.253051757812	1093.156982421875	226.8627471923828	1356.664916992188	1289.83251953125	246.5574493408203	1117.984741210938	1217.0390625	230.111572265625	1153.206909179688	1491.515747070312	255.0319213867188	1331.885620117188	1399.925903320312	248.0802001953125	1084.4296875	1363.018920898438	335.1893615722656	1124.997802734375	1438.67529296875	161.0443115234375	1223.817138671875	1470.024536132812	84.21640014648438	1224.984130859375	1346.360107421875	-0.1374411284923553	1266.142700195312	1128.228149414062	-29.79618835449219	1179.312622070312	1108.5888671875	19.75746154785156	1389.726684570312	898.6271362304688	9.815815925598145	1349.190673828125	872.5664672851562	-62.73419570922852	1299.767700195312	1045.857055664062	-39.79396057128906	1410.875732421875	729.7297973632812	-2.068734645843506	1366.015625	814.3153076171875	-56.9137077331543	1416.3232421875	825.200927734375	-12.07658672332764	1210.035034179688	1452.560546875	411.1610412597656	1191.330322265625	1385.093505859375	475.3240356445312	1195.93798828125	1095.598022460938	516.0020751953125	1142.98291015625	1077.46142578125	484.6936950683594	1335.817993164062	876.6968994140625	486.8721008300781	1287.580688476562	856.8593139648438	550.672119140625	1206.5888671875	1040.731567382812	524.2527465820312	1345.622314453125	701.6171264648438	493.2237243652344	1360.985473632812	784.0996704101562	501.4188232421875	1303.037353515625	781.65966796875	547.8197631835938	1247.671264648438	1681.911865234375	324.8422546386719	1400.258422851562	1688.547119140625	183.1875457763672	1388.487060546875	1687.997924804688	328.2680053710938	1268.0986328125	1679.749877929688	161.2231140136719	1284.961547851562	933.1629638671875	47.71752548217773	1231.456909179688	924.79296875	426.2614135742188	1324.647094726562	961.2368774414062	380.2210998535156	1352.222290039062	961.743408203125	107.4310531616211	1415.523681640625	508.2377014160156	127.3902053833008	1374.833251953125	667.1617431640625	85.27750396728516	1381.597290039062	30.89982795715332	147.5978393554688	1386.80419921875	251.2290496826172	132.2914123535156	1589.26953125	40.40972137451172	217.7464599609375	1516.1689453125	46.49649429321289	248.0284423828125	1503.420654296875	33.59590148925781	139.0006561279297	1312.706420898438	38.95070266723633	199.4213104248047	1315.448486328125	487.1206970214844	409.199951171875	1292.966186523438	775.7735595703125	425.9463806152344	950.8681030273438	172.5694732666016	370.4117431640625	1237.21484375	364.555908203125	393.5880737304688	1130.891235351562	54.23443984985352	347.6702880859375	1084.097900390625	88.57918548583984	300.9939880371094	1050.212036132812	93.39612579345703	400.3530883789062	915.55419921875	204.9057159423828	309.7788696289062	
